<?xml version="1.0" encoding="utf-8"?>
<!-- Generator: Adobe Illustrator 25.2.1, SVG Export Plug-In . SVG Version: 6.00 Build 0)  -->
<svg version="1.1" id="Слой_1" xmlns="http://www.w3.org/2000/svg" xmlns:xlink="http://www.w3.org/1999/xlink" x="0px" y="0px"
	 viewBox="0 0 989 1080" style="enable-background:new 0 0 989 1080;" xml:space="preserve">
<style type="text/css">
	.st0{fill:#9EA9FF;}
	.st1{fill:#181663;}
	.st2{fill:#FFC2B8;}
	.st3{fill:#00004A;}
	.st4{fill:#8A83C9;}
	.st5{fill:#FF2D56;}
	.st6{fill:#FF4C6F;}
	.st7{fill:#D4D0F0;}
	.st8{fill:#2200E0;}
	.st9{fill:#1C00BD;}
	.st10{fill:#2700FF;}
	.st11{fill:#263566;}
	.st12{fill:#5700BB;}
	.st13{fill:#695FC7;}
	.st14{fill:#E6E4F0;}
	.st15{fill:#E3E7FF;}
	.st16{fill:#360000;}
	.st17{fill:#48389A;}
	.st18{fill:url(#SVGID_1_);}
	.st19{fill:#291F87;}
	.st20{fill:#25004B;}
	.st21{fill:#786DD3;}
	.st22{fill:url(#SVGID_2_);}
	.st23{fill:#F7F8FF;}
	.st24{fill:url(#SVGID_3_);}
	.st25{fill:#1D1A5B;}
	.st26{fill:url(#SVGID_4_);}
	.st27{fill:#FFFFFF;}
</style>
<g>
	<ellipse class="st0" cx="397.8" cy="936.9" rx="265.3" ry="37"/>
	<path class="st1" d="M436.5,893.5c0,0-12.7,12.8-12.9,19.9c-0.1,5.6,43,23.1,60.3,29.9c1.7,0.7,3.1-1.3,1.8-2.6
		c-11.1-11.3-39.7-39.7-39.8-45.7L436.5,893.5z"/>
	<path class="st2" d="M554.9,526.5c-10.2,6.4-29.3,4.3-32.4,1.8c-3.1-2.5-21.6,58.9-35.3,54.1c-13.7-4.7-17.3-14.2-15.4-13.9
		c1.9,0.3,46.5-57.9,47.9-60.4c1.4-2.5,17.6-15,31.9-10.6c6.5,2-17.5,14.5-10.5,13.3c25.8-4.7,45.2-1.4,46.9-0.5
		C591.2,511.9,571.3,516.2,554.9,526.5z"/>
	<path class="st3" d="M318.9,397.6c-2.4-3.3-14.6-22.1-31.4-10.9c-7.3,4.8-4.4-10.9-19.1-11.2c-19.3-0.4-37.4,5-46.5,34
		c-2.2,7.2,2.6,24.2-16,33.3c-29.4,14.4-43.1,86.6-43.1,101.1c0,15.9,24.6,64.6,76.5,76c22.2,4.9,15-75.5,36.3-83.3
		c14-5.1,24.4-12,38.5-24c12.5-10.7,8-11.6,14.1-19c12.7-15.4,19.3-29.9,5.6-53.5C320.9,418.1,335.2,420.1,318.9,397.6z"/>
	<path class="st4" d="M496.3,540.7c-3-7.9-14.4,9.2-16.6,11c-6.9,5.4-40,51.3-89.6,32.8c0-0.1,0-0.1,0.1-0.2c0,0-13-0.6-38.8-24.8
		c-25.9-24.2-49.7-28.8-56.2-28c-6.6,0.8-13.9,80.1,14.5,86.2c0,0,54.2,57.7,104.6,39.6c0,0,9.6-8.9,27.9-13.6
		c36.2-9.3,17.5-25.3,32.7-30.4c26.4-8.8,47-36,37.4-42.2C497.3,562.6,497.2,543.8,496.3,540.7z M388.6,588.4c0,0,0,0.1,0,0.1
		C388.6,588.5,388.6,588.5,388.6,588.4z"/>
	<path class="st5" d="M243,678.1c0,0-1.4,9.9-6.9,19.3c-5.5,9.4-14.1,28.9-16.1,36.7c-2.1,7.8,67.2,34,104.4,19.2
		s17.3-117.7,5.8-126.6C318.7,617.8,243,678.1,243,678.1z"/>
	<path class="st1" d="M558,849.2c0,0,4,17.3,9.5,21.7c4.4,3.5,44.6-19.9,60.5-29.4c1.6-1,0.9-3.2-1-3c-15.7,1.9-46.1,5.5-51,1.8
		L558,849.2z"/>
	<path class="st2" d="M232.1,461c0,0,26.4,31.7,15.3,63c-5.9,16.7,29.4,34,45.4,26.8c16-7.2-4.4-39.2-4.6-49.2
		C288,491.7,232.1,461,232.1,461z"/>
	<g>
		<path class="st6" d="M313.9,676.9c-21.7,21.4-41.4,34.3-85.5,32.8l0,0c3.3-4.9,6.4-9.5,8.3-12.7c5.5-9.4,6.9-19.3,6.9-19.3
			s75.8-60.3,87.2-51.4c11.5,9,29.5,103.4,9.8,129.6c-3.5,4.7-29.4,2.3-34,1.1C334.4,712.3,329.3,661.7,313.9,676.9z"/>
	</g>
	<path class="st7" d="M218.8,614.3c0,0-1.6,12.3-0.7,16.7c0.9,4.4-7.4,9.2,7.1,17.5c14.5,8.3-5.3,8.3,7.4,17.9
		c12.6,9.7,3,10.3,5.1,15.2c2.1,4.8,1.4,9.4,1.4,9.4s46.4,14.2,70.1-19.4c10.9-15.5,26.9-18.3,33.4-18.3c6.4,0-3.4-74.3-6.8-80.4
		c-8.7-16-18.3-28.5-20.9-31.3c-7-7.6-14.5-14.1-15.7-7.6c-0.8,4.2-11.8,5.5-35.4-4.7C230.9,515.2,209,540.6,218.8,614.3z"/>
	<path class="st8" d="M261.9,691.2c0,0-68.4,52.6,13.7,83.8c29,11,45.8,12.8,72.6,5.8c27.5-7.1,53.6,14.6,52.2,43
		c-0.3,5.4,4.3,3.5,4.3,9.8c0,14.9,20.2,76.9,40,69.4c0,0,151.2-28.1,129.5-70.6c-19.9-39-81.4-168-127.7-165.5
		C350.1,672.3,261.9,691.2,261.9,691.2z"/>
	<g>
		<path class="st9" d="M574.1,832.4c-19.9-39-81.4-168-127.7-165.5c-96.3,5.4-184.5,24.2-184.5,24.2l47.3,0.8c0,0,38.1-3.4,134.5,0
			c49.7,1.8,102.1,126,122,165c0.3,0.5,0.5,1,0.7,1.5C575.2,850.6,579,841.8,574.1,832.4z"/>
	</g>
	<g>
		<path class="st10" d="M239.3,690.8c0,0-58.3,56.2,8.7,89.4c38.6,19.1,57.2,6,125.2-5.6c0,0,36.8,102.4,60.6,126.9L526,866
			c0,0-25.1-167.9-96.3-174.1C334.6,683.8,239.3,690.8,239.3,690.8z"/>
	</g>
	<g>
		<path class="st1" d="M132.6,576.2l0.8,9c6.7-0.6,26.6-0.1,29,9c2.2,8,4.8,66,6.7,116.8c-1.9,3.1-3,6.8-2.8,10.7l2.1,49
			c0.4,10.5,9.4,18.7,19.8,18.2l82-3.5L175,804.8l2.1,10.5l171.3-34.9l0.3-0.1l0.3-0.1c0.1,0,10.9-3.4,17.5,1
			c3.4,2.3,5.4,6.6,5.8,12.7c1.9,26.4,7.4,131.8,7.5,132.9l10.7-0.6c-0.1-1.1-5.6-106.6-7.5-133.1c-0.7-9.6-4.2-16.7-10.5-20.9
			c-7-4.7-15.5-4.4-21.1-3.6l-3.6-72.7c-0.7-14.5-13.1-25.7-27.5-25.1l-143.6,6.2c-1.7-39.7-3.7-78.2-5.7-85.4
			c-1.5-5.5-6.5-12.6-22.1-15C140.6,575.5,132.9,576.2,132.6,576.2z M184.5,701.9c-2.4,0.1-4.6,0.6-6.7,1.5
			c-0.2-5.6-0.4-11.4-0.7-17.2l143.6-6.2c9.5-0.4,17.7,7,18.1,16.5l3.7,74.1l-16.8,3.4c1.7-3,2.6-6.5,2.5-10.2l-2.1-49
			c-0.4-10.5-9.4-18.7-19.8-18.2L184.5,701.9z"/>
		<path class="st11" d="M139.4,589.9l-30.8,1.3c-3.7,0.2-6.8-2.7-7-6.4l-0.2-3.9c-0.2-3.7,2.7-6.8,6.4-7l30.8-1.3
			c3.7-0.2,6.8,2.7,7,6.4l0.2,3.9C146,586.6,143.1,589.8,139.4,589.9z"/>
		<g>
			
				<ellipse transform="matrix(0.2298 -0.9732 0.9732 0.2298 -612.6868 1093.9276)" class="st12" cx="384.8" cy="934" rx="29.4" ry="29.4"/>
			<circle class="st10" cx="384.3" cy="934" r="14.7"/>
		</g>
	</g>
	<path class="st2" d="M509.8,495.9c-10.8,7.2-31.4,5.5-34.8,3c-3.4-2.6-16,65.5-30.9,60.9c-14.9-4.6-24.4-16.4-22.3-16.1
		c2.1,0.3,48.1-63.6,49.5-66.4c1.4-2.7,18.4-16.7,34-12.4c7,1.9-18.4,16.2-10.8,14.6c27.5-5.9,48.2,1.7,50,2.6
		C548,483.7,527.1,484.3,509.8,495.9z"/>
	<path class="st7" d="M464.6,597.8c0,0,9.2-12.7-2.4-26.1c-8.5-9.9-22-29.2-28.5-38.7c-1.7-2.5-5.4-2.4-6.9,0.2
		c-3.7,6-9.9,14.6-15.1,14.9c-8,0.5-11,2.7-10.7,5.7c0.3,3-7.8,14.9-17,19.9c-3.9,2.1-27.4,12.6-41.4,5.9
		c-9.2-4.4-19.7-17.2-25.5-8.8c-6,8.8-11.4,18.9-24.4,34.3c0,0,0.6,15.2,29.2,30.2c28.7,15,69.4,12.7,74.7,8s23.3-14.4,25.9-14.3
		c2.7,0.1,1.2-6.4,2.6-9.8C426.6,615.8,440.6,602.4,464.6,597.8z"/>
	<g>
		<path class="st13" d="M320,631.4c28.7,15,53.4,2.8,71.3-6.8c6.3-3.4,23.3-14.4,25.9-14.3c2.7,0.1,1.2-6.4,2.6-9.8
			c1.4-3.5,15.5-16.8,39.4-21.4c0,0,2.1-2.9,3-7.3c11.5,13.4,2.3,26,2.3,26c-23.9,4.6-38,17.9-39.4,21.4c-1.4,3.5,0.1,9.9-2.6,9.8
			c-2.7-0.1-20.6,9.6-25.9,14.3s-44.1,12.7-72.7-2.3c-28.7-15-71.6-54.7-71.6-54.7c-41.8-43.7,29.2,19.2,36.4,23
			C299.8,616.2,304.4,623.3,320,631.4z"/>
		<path class="st14" d="M432.1,551.9c-3.7,6-10.9,11.7-15.1,14.9c-51,38.8-43.5,15.3-59.8,22.4c-19.7,8.6-44.9-3.4-100.3-48.1
			c-11.1-9,3.3-10,3.3-10s75.7,55.2,119.9,40.8c6.9-2.3,21.1-15,20.9-18c-0.3-3,2.7-5.3,10.7-5.7c5.2-0.3,11.4-8.9,15.1-14.9
			c1.6-2.5,5.2-2.6,6.9-0.2C440.2,542.5,433.7,549.3,432.1,551.9z"/>
	</g>
	<g>
		<ellipse class="st1" cx="199.2" cy="841.4" rx="124" ry="121.8"/>
		<ellipse class="st15" cx="199.9" cy="843.4" rx="109.4" ry="110.4"/>
		<g>
			<path class="st10" d="M198.7,943.5c-26.7,0-51.7-10.4-70.6-29.2c-18.9-18.9-29.2-43.9-29.2-70.6s10.4-51.7,29.2-70.6
				c18.9-18.9,43.9-29.2,70.6-29.2c26.7,0,51.7,10.4,70.6,29.2c18.9,18.9,29.2,43.9,29.2,70.6s-10.4,51.7-29.2,70.6
				C250.4,933.1,225.4,943.5,198.7,943.5z M198.7,749c-52.2,0-94.7,42.5-94.7,94.7c0,52.2,42.5,94.7,94.7,94.7
				c52.2,0,94.7-42.5,94.7-94.7C293.4,791.4,250.9,749,198.7,749z"/>
		</g>
		
			<ellipse transform="matrix(0.1602 -0.9871 0.9871 0.1602 -664.4214 903.4033)" class="st10" cx="198.7" cy="842.2" rx="14.6" ry="14.6"/>
	</g>
	<path class="st2" d="M276.1,402.9c0,0,18.5-6.7,32,20.2c13.6,26.8,13.4,50.4,5.3,63.5c-4.3,6.9-12.1,15.1-22.4,14.5
		c-14.9-0.9-21.6,15.7-24,13.8c-11.8-9.4-21.1-23.7-28.7-48.8C226.2,425.5,276.2,402.8,276.1,402.9z"/>
	<g>
		<path class="st16" d="M300.4,437.2C300.4,437.2,300.5,437.2,300.4,437.2c2.6-0.8,3.1-4.1,1-5.6c-0.7-0.5-1.6-0.7-2.6-0.2
			c-1.3,0.6-1.5,2.2-1.4,3.7C297.5,436.7,299,437.7,300.4,437.2z"/>
	</g>
	<g>
		<path class="st16" d="M272.9,445.5C272.9,445.5,272.9,445.5,272.9,445.5c2.6-0.8,3.1-4.1,1-5.6c-0.7-0.5-1.6-0.7-2.6-0.2
			c-1.3,0.6-1.5,2.2-1.4,3.7C269.9,444.9,271.4,446,272.9,445.5z"/>
	</g>
	<path class="st6" d="M303,466.5c-1.2,1.1-2.3,1.6-3.5,1.9c-1.2,0.3-2.4,0.3-3.6,0.2c-1.3-0.1-2.6-0.3-3.9-0.5
		c-0.3-0.1-0.7-0.1-1-0.2c-0.4-0.1-0.7-0.1-1.1-0.2c-0.2,0-0.4-0.1-0.5-0.1c-0.2,0-0.4,0-0.6-0.1c-0.4,0-0.8-0.1-1.2-0.1
		c0.5,0.6,1.1,1.2,1.7,1.6c0.3,0.2,0.6,0.5,0.9,0.7c0.3,0.2,0.7,0.4,1,0.6c1.4,0.7,2.9,1.2,4.5,1.3c0.8,0.1,1.7,0,2.5-0.2
		c0.8-0.2,1.7-0.5,2.4-1c0.7-0.5,1.3-1.1,1.8-1.8c0.2-0.4,0.4-0.7,0.5-1.1C303,467.3,303.1,466.9,303,466.5z"/>
	<path class="st17" d="M285.8,384.2c5.7,6.3,3,16.4-5.1,19.6c-3.8,1.5-8.3,2.3-13.7,3.8c-9.2,2.7-0.5,23.8-21.9,41.5
		c-15.8,13,19.2,46.9-25.5,55.2c-57.1,10.5-55.8,49.9-56.7,39.6c-6.6-77.4,32.8-102.1,44.8-113c15.5-14.1,6.6-12.8,22.8-39.7
		C236.6,381,268.3,364.7,285.8,384.2z"/>
	<g>
		<linearGradient id="SVGID_1_" gradientUnits="userSpaceOnUse" x1="542.3265" y1="282.543" x2="620.3098" y2="282.543">
			<stop  offset="0" style="stop-color:#FF928E"/>
			<stop  offset="1" style="stop-color:#FE7062"/>
		</linearGradient>
		<path class="st18" d="M580.2,329.1l40.2-16.2c0,0-9.8-10.1-4.3-25.7c6.4-18-9.2-64.3-50-47.7c-39.9,16.2-22.4,56.5,1.7,70.8
			C578.4,316.7,580.2,329.1,580.2,329.1z"/>
		<path class="st19" d="M592,322.5c-2.1-2-4-4.2-5.9-6.3c-1.9-2.2-3.7-4.4-5.5-6.6c-1.8-2.2-3.5-4.5-5.2-6.8
			c-1.7-2.3-3.4-4.6-4.9-6.9c-1.6-2.3-3-4.8-4.6-7.1c-0.4-0.6-0.8-1.1-1.2-1.7c-0.2-0.3-0.4-0.5-0.6-0.8l-0.3-0.3
			c-0.1-0.1-0.1-0.1-0.2-0.2l-0.1-0.1c-0.1-0.1-0.2-0.2-0.4-0.3c-0.2-0.1-0.4-0.3-0.6-0.5l-0.1-0.1c0,0-0.1-0.1-0.1-0.2
			c-0.1-0.1-0.1-0.2-0.1-0.2c0,0-0.1-0.1-0.1-0.2c0-0.1,0-0.2,0-0.3c0-0.2,0-0.4,0.1-0.6c0.1-0.2,0.2-0.3,0.3-0.4
			c0.2-0.2,0.3-0.2,0.5-0.3c0.2-0.1,0.4-0.1,0.5-0.1c0.1,0,0.2,0,0.3,0c0.8,0,1.5,0,2.2,0c2.8,0.1,5.6,0,8.3-0.4
			c2.7-0.4,5.4-1.2,7.7-2.4c2.4-1.2,4.4-2.7,6.1-4.5c0.8-0.9,1.5-1.9,2.2-2.9c0.2-0.3,0.3-0.5,0.4-0.8l0.2-0.4l0.3-0.5
			c0.1-0.2,0.2-0.4,0.3-0.6c0.1-0.2,0.2-0.4,0.4-0.6c0.2-0.2,0.3-0.4,0.5-0.6c0.2-0.2,0.4-0.4,0.6-0.6c0.1-0.1,0.3-0.2,0.4-0.3
			l0.2-0.2c0.1-0.1,0.2-0.1,0.3-0.2c0.2-0.1,0.4-0.2,0.6-0.3c0.2-0.1,0.5-0.2,0.8-0.2c0.3-0.1,0.6-0.1,0.9,0c0.3,0,0.6,0.1,0.9,0.1
			c0.3,0.1,0.6,0.2,0.8,0.3c0.2,0.1,0.4,0.2,0.6,0.4c0.1,0.1,0.2,0.1,0.3,0.2l0.2,0.2c0.1,0.1,0.3,0.3,0.4,0.4
			c0.2,0.2,0.5,0.5,0.6,0.7c0.3,0.5,0.6,0.9,0.8,1.3c0.4,0.8,0.7,1.6,1,2.4c0.3,0.8,0.5,1.5,0.7,2.3c0.8,3,1.2,5.9,1.4,8.7
			c0.5,5.8,0.6,11.5,0.4,17.2c-0.1,2.8-0.3,5.7-0.6,8.5c-0.3,2.8-0.6,5.7-1.2,8.5c0,0.2-0.2,0.3-0.4,0.2c-0.1,0-0.2-0.1-0.2-0.3
			c-1.1-5.7-1.8-11.3-2.5-16.9c-0.7-5.6-1.3-11.2-2.1-16.7c-0.3-2.7-0.7-5.5-1.2-8c-0.1-0.6-0.3-1.3-0.4-1.9
			c-0.2-0.6-0.3-1.2-0.5-1.6c-0.1-0.2-0.2-0.4-0.2-0.5c0-0.1,0-0.1,0-0.1c0,0,0,0,0,0c0,0,0,0,0,0c0,0,0,0,0.1,0
			c0.1,0,0.1,0.1,0.2,0.1c0.1,0,0.2,0.1,0.3,0.1c0.1,0,0.2,0,0.4,0.1c0.1,0,0.3,0,0.4,0c0.1,0,0.2-0.1,0.3-0.1c0,0,0.1,0,0.1-0.1
			c0,0,0,0,0,0l0,0c0,0,0,0,0,0c0,0-0.1,0.1-0.1,0.1l-0.2,0.2c-0.1,0.1-0.1,0.2-0.2,0.3c-0.1,0.1-0.2,0.2-0.2,0.3l-0.2,0.3l-0.3,0.5
			c-0.2,0.3-0.5,0.7-0.7,1c-0.9,1.3-2.1,2.4-3.3,3.4c-2.5,2-5.4,3.2-8.2,4c-5.8,1.5-11.6,1.5-17.2,1.7c-0.7,0-1.4,0.1-2,0.2
			c-0.1,0-0.1,0-0.2,0c0,0-0.1,0,0,0c0.1,0,0,0,0.2-0.1c0.1-0.1,0.1-0.1,0.2-0.3c0.1-0.2,0.1-0.4,0.1-0.5c0-0.1,0-0.1,0-0.2
			c0-0.1-0.1-0.1-0.1-0.2c0,0,0-0.1-0.1-0.1c0-0.1,0-0.1,0-0.1c0,0,0,0,0,0c0,0,0.1,0.1,0.3,0.1c0.1,0,0.3,0.2,0.5,0.3
			c0.8,0.5,1.3,0.9,1.9,1.4c0.6,0.5,1.1,1,1.7,1.5c2.2,2,4.2,4.1,6.1,6.2c1.9,2.2,3.6,4.5,5.3,6.8c1.6,2.4,3.2,4.8,4.7,7.2
			c1.5,2.4,2.9,4.9,4.3,7.5c1.3,2.5,2.6,5.1,3.7,7.8c0.1,0.2,0,0.3-0.2,0.4C592.2,322.6,592.1,322.6,592,322.5z"/>
		<path class="st19" d="M595.9,342.8c0,0,5.3,11.4,15.2,8.7c10-2.7,9.3-14.6,8.2-18.2c0,0,11.2-5,0.6-20.5c0,0-36.5,8-40.2,16.2
			C580.7,337.2,585.5,344.3,595.9,342.8z"/>
		<path class="st19" d="M598.3,230.7c0,0,9.1-13.3,9.9-25.4C608.9,193.3,632.7,212.2,598.3,230.7z"/>
		<path class="st19" d="M556.5,232.1c0,0-1.6-16.3-8.7-26.2C540.7,196,570.8,195.7,556.5,232.1z"/>
		<path class="st19" d="M535.1,261c0,0-16.4-2.5-27.6,1.9C496.2,267.2,502.1,238.1,535.1,261z"/>
		<path class="st20" d="M773.8,139.8l19-56.1c-0.8-0.4-1.5-1.2-1.8-2.2c-0.6-1.9,0.4-3.8,2.2-4.4c1.8-0.5,3.7,0.6,4.2,2.4
			c0.6,1.9-0.4,3.8-2.2,4.4c-0.7,0.2-1.4,0.2-2.1-0.1l-13.1,57.7c0,0.1-0.1,0.2-0.1,0.3c-0.6,1.7-2.4,2.6-4.1,2
			S773.2,141.5,773.8,139.8z"/>
		<g>
			<path class="st21" d="M690.3,269.2c0,0-23.9,29.4-79.6,41.2c-16,3.4,29,59,105.6,38.7C726.1,346.5,703.2,271.5,690.3,269.2z"/>
			<linearGradient id="SVGID_2_" gradientUnits="userSpaceOnUse" x1="608.8795" y1="321.9247" x2="720.519" y2="321.9247">
				<stop  offset="0" style="stop-color:#09005D"/>
				<stop  offset="1" style="stop-color:#1A0F91"/>
			</linearGradient>
			<path class="st22" d="M697.1,285.9c0,0-29.3,17.2-85,29c-16,3.4,29,59,105.6,38.7C727.4,351,710,288.2,697.1,285.9z"/>
		</g>
		<path class="st23" d="M676.9,274.8c-1-4.1-13.5-44-9.1-78.2c4.4-37.7,29.5-52,64-59.8c0.2-0.1,0.5-0.2,0.8-0.3
			c24.3-5.2,35.3-9,49.5-22.5c1.4-1.3,3.6-0.5,3.9,1.3c1.9,11.5,7.5,22.7,14.3,32.7c28.6,20.5,40.9,59.5,27.9,93.2
			c94.9,109,28.4,147.6,25.6,242.1C852.3,540.7,717.5,449.5,676.9,274.8z"/>
		<linearGradient id="SVGID_3_" gradientUnits="userSpaceOnUse" x1="665.4393" y1="222.3542" x2="775.1259" y2="222.3542">
			<stop  offset="0" style="stop-color:#09005D"/>
			<stop  offset="1" style="stop-color:#1A0F91"/>
		</linearGradient>
		<path class="st24" d="M714.3,196.5c46.7-13.3,67,6.7,59.2,26.6c-8,20.5-38.5,34.6-75.5,27.7c-15.2-2.8-26.3,3.2-28.6-4.8
			c-6.2-20.7-3.8-32.9-1.4-50.5C679.7,200.9,700.7,200.3,714.3,196.5z"/>
		<g>
			<path class="st25" d="M797.6,289.1c0,0,39.9,50.5,97.9,59.1c47.9,7.1-58.7-97.6-67.5-98.3C819.3,249.2,795.3,275.7,797.6,289.1z"
				/>
			<linearGradient id="SVGID_4_" gradientUnits="userSpaceOnUse" x1="783.6858" y1="293.7984" x2="901.8467" y2="293.7984">
				<stop  offset="0" style="stop-color:#09005D"/>
				<stop  offset="1" style="stop-color:#1A0F91"/>
			</linearGradient>
			<path class="st26" d="M783.8,280.5c0,0,49.4,54.5,104.5,59.3c48.3,4.2-46.9-91.4-55.7-92.1C823.8,247,781.5,267.1,783.8,280.5z"
				/>
		</g>
		<ellipse transform="matrix(0.9891 -0.1472 0.1472 0.9891 -24.6614 108.8404)" class="st27" cx="723" cy="221" rx="6.8" ry="5.1"/>
		<path class="st27" d="M668.7,220.4c-0.4,2.8,2.4,5.4,6.1,5.9c3.7,0.5,7.1-1.4,7.4-4.1c0.4-2.8-2.4-5.4-6.1-5.9
			C672.4,215.7,669.1,217.6,668.7,220.4z"/>
		<path class="st25" d="M676.9,274.8c0,0,70,27.6,151.5-33.5l6.9,8.5c0,0-60.1,62.9-156.3,37.6L676.9,274.8z"/>
	</g>
</g>
</svg>
